
<svg xmlns="http://www.w3.org/2000/svg" version="1.1" xmlns:xlink="http://www.w3.org/1999/xlink" preserveAspectRatio="none" x="0px" y="0px" width="256px" height="256px" viewBox="0 0 256 256">
<defs>
<g id="Layer0_0_FILL">
<path fill="#FFFFFF" stroke="none" d="
M 218.25 42.4
Q 211.8 34.95 205.9 29.5 201 24.95 196.05 21.4 186.75 16.4 177 13.1 163.8 8.6 147.6 6.65 137.5 5.35 124.75 5.05 124.6 5.15 124.45 5.3 124.3 5.45 124.2 5.6 114.8 6 106.95 7 90.8 8.95 77.55 13.5 67.85 16.75 58.55 21.75 53.6 25.3 48.7 29.9 42.8 35.35 36.35 42.75 33.5 46.1 29.8 50.7 24.1 62.05 20.4 69.5 18.35 74.25 17.6 76.15 14.35 84 12.05 90.9 11.15 94.4 10.3 98.1 10.25 100.05 9.6 102.85 9.1 105.05 8.6 107.2
L 7.2 118.15
Q 5.75 129.55 4.75 138.55 4.65 147.8 4.55 163 4.5 175.1 4.7 184.2 5.15 191.95 5.85 198.4 7.45 212.6 10.85 224.25 12.7 230.4 16.45 240.45 18.65 246.15 20.05 250.05 20.3 245.65 20.55 242.4 21.4 231.45 23.15 222.65 26.05 207.45 32.85 193.15 37.7 182.9 43.35 176.15 46.55 172.4 51.1 168.4 54.15 165.75 59.55 161.5 67.85 154.9 72.85 152.3 78.15 149.55 85.35 147.85 89.75 146.8 98.5 145.55 114.55 143.1 127.25 141.35
L 127.25 138.8 127.3 138.8 127.3 140.95
Q 140.05 142.75 156.1 145.15 164.85 146.45 169.25 147.45 176.45 149.2 181.75 151.95 186.75 154.5 195.05 161.15 200.45 165.4 203.5 168.05 208.05 172 211.25 175.8 216.9 182.5 221.75 192.8 228.55 207.05 231.45 222.3 233.2 231.05 234.05 242.05 234.3 245.25 234.55 249.7 235.95 245.75 238.15 240.05 241.9 230.05 243.75 223.85 247.1 212.2 248.75 198 249.45 191.55 249.9 183.8 250.1 174.7 250.05 162.65 249.95 147.4 249.85 138.15 248.85 129.15 247.35 117.75
L 246 106.8
Q 245.5 104.65 245 102.45 244.35 99.65 244.3 97.75 243.45 94 242.5 90.5 240.25 83.6 237 75.75 236.25 73.9 234.2 69.15 230.5 61.65 224.8 50.3 221.1 45.75 218.25 42.4 Z"/>
</g>
</defs>

<g transform="matrix( 1, 0, 0, 1, 0,0) ">
<use xlink:href="#Layer0_0_FILL"/>
</g>
</svg>
