
<svg xmlns="http://www.w3.org/2000/svg" version="1.1" xmlns:xlink="http://www.w3.org/1999/xlink" preserveAspectRatio="none" x="0px" y="0px" width="128px" height="256px" viewBox="0 0 128 256">
<defs>
<g id="Layer0_0_FILL">
<path fill="#FFFFFF" stroke="none" d="
M 97.75 35.55
Q 93.5 28 87.55 22.3 81.4 16.4 73.7 12.75 68.6 10.3 63.2 9.1
L 63.15 9.1
Q 62.45 8.95 61.75 8.85
L 61.75 9.4
Q 56.35 10.6 51.25 13 43.55 16.65 37.4 22.55 31.45 28.25 27.2 35.8 23.15 43.15 21.1 51.5 20.8 52.8 19.5 59.9 17.1 73.5 16.6 80.4 16.15 87.3 16.35 99.45 16.6 115.9 17 124.15 17.35 131.6 18 138.25 20.1 134.6 21.3 132.5 23.85 127.8 25.35 124.15 26 122.5 26.6 121.65 26.85 121.3 27.1 121.05 27.45 120.35 28.1 119.6 29.3 118.1 29.45 117.7 29.75 116.5 29.95 115.95 30.2 115.35 31.15 114 32.05 112.65 33.35 110.25 34.5 108.15 34.85 107 34.9 106.6 34.95 106.25 36.9 123.25 39.2 137.45 39.9 141.95 41.55 150.85
L 48.95 192.1
Q 49.4 194.45 49.75 196.45
L 61.45 246
Q 61.85 246.1 62.25 245.95 62.2 245.85 62.2 245.75 62.55 245.9 62.9 245.8
L 62.9 245.75
Q 63.2 245.8 63.5 245.75
L 75.2 196.2
Q 75.55 194.2 76 191.85
L 83.4 150.6
Q 85.05 141.7 85.75 137.2 88.05 123 90 106 90.05 106.35 90.1 106.75 90.45 107.9 91.6 110 92.9 112.4 93.8 113.75 94.75 115.1 95 115.7 95.2 116.25 95.5 117.45 95.65 117.85 96.85 119.35 97.5 120.1 97.85 120.8 98.1 121.05 98.35 121.4 98.95 122.25 99.6 123.9 101.1 127.55 103.65 132.25 104.85 134.35 106.95 138 107.6 131.35 107.95 123.9 108.35 115.65 108.6 99.2 108.8 87.05 108.35 80.15 107.85 73.25 105.45 59.65 104.15 52.55 103.85 51.25 101.8 42.9 97.75 35.55 Z"/>
</g>
</defs>

<g transform="matrix( 1, 0, 0, 1, 0,0) ">
<use xlink:href="#Layer0_0_FILL"/>
</g>
</svg>
