
<svg xmlns="http://www.w3.org/2000/svg" version="1.1" xmlns:xlink="http://www.w3.org/1999/xlink" preserveAspectRatio="none" x="0px" y="0px" width="256px" height="256px" viewBox="0 0 256 256">
<defs>
<g id="Layer0_0_FILL">
<path fill="#FFFFFF" stroke="none" d="
M 224.8 27.4
Q 221.6 28.05 215.6 30.9 194.85 41.05 179.35 51.95 169.3 46.9 155.9 43.2 151.9 36.4 143.3 24.75 140.2 20.55 137.75 17.05
L 135.4 13.3
Q 132.85 9.3 131.95 7.15 131.15 5.1 130.7 4.5 130.2 3.9 129.7 3.65
L 129.7 3.2
Q 129.25 3.1 128.8 3.25 128.65 3.25 128.45 3.35
L 128.4 3.35
Q 128.15 3.2 127.85 3.15 127.55 3.05 127.25 3.05 127.15 3.05 127 3.1
L 127 3.75
Q 126.5 4 126 4.6 125.55 5.2 124.7 7.25 123.8 9.4 121.25 13.4
L 118.95 17.15
Q 116.5 20.65 113.4 24.85 104.8 36.5 100.75 43.25 87.4 46.95 77.35 52.05 61.85 41.15 41.1 31 35.1 28.15 31.9 27.5 28.9 26.9 26.95 27.6 25.7 28 24.85 28.85 23.9 29.8 23.7 31.1 23.35 32.8 24.9 35.9
L 36.45 58.8
Q 41 68.15 45 75.85 46.15 78 47.25 80.05 46.1 82.25 45.2 84.4 43.25 89 41.7 95.05 40.1 101.3 39.35 106.65 39 109.15 38.7 111.8
L 5.55 128.1
Q 1.95 130 1.95 132.1 1.95 132.35 2 132.55 2.2 134 4.4 135.3 12.55 140.55 21.05 144.4 25.85 146.6 33.6 149.65 38.35 151.45 41.8 152.75 41.8 153.4 41.85 154.55
L 42.05 157.15
Q 42.15 158.75 42.35 160.2 43 164.15 45.5 169 46.65 171.3 49.8 176.35 49.35 177.85 49.1 178.9 48.8 180.5 48.5 182.45 47.6 185.4 47.25 186.9 47 187.8 46.2 191.5 45.55 194.35 45 196.15
L 42.65 204.5 39.35 227.2
Q 39.4 227.3 39.5 227.4 40.2 228.1 41.2 228.5 41.35 228.7 41.55 228.75 41.95 229 42.4 228.8 42.65 228.75 42.8 228.65 44.05 228.6 45.75 228.2 57.8 225.25 67.5 220.6 70.5 219.2 74.4 217
L 81.1 213.05
Q 83.3 211.8 85.35 210.65 86 211.25 86.35 211.5 88.45 213.35 90.3 214.5 94.85 217.45 102.1 219.3 104.2 219.8 106.2 220.25 107.15 221.4 108.5 222.8 108.65 222.9 108.75 223.1 108.8 223.35 108.85 223.45 108.9 223.85 109.4 224.3 110 224.85 110.15 225.1 110.45 225.6 110.6 226.9 110.8 227.55 111.4 228.3
L 112.45 229.5
Q 112.65 229.8 114.55 232.6 114.65 232.8 116.55 235.15 118.25 237.4 121.1 242.25
L 122.4 244.45
Q 123.05 245.55 123.3 245.9 123.8 246.6 124.3 247.15
L 124.75 247.85
Q 126.05 249.8 127 250.9
L 127 252.1
Q 127.25 252.1 127.45 252.1 127.8 252.1 128.25 251.9 128.75 252.15 129.25 252.2 129.45 252.2 129.7 252.2
L 129.7 250.8
Q 130.65 249.7 131.9 247.8
L 132.35 247.05
Q 132.85 246.5 133.35 245.8 133.65 245.45 134.3 244.35
L 135.6 242.15
Q 138.45 237.3 140.1 235.1 142 232.7 142.1 232.5 144.05 229.7 144.25 229.4
L 145.3 228.2
Q 145.9 227.45 146.05 226.8 146.2 225.5 146.55 225 146.65 224.75 147.25 224.2 147.75 223.75 147.85 223.35 147.9 223.3 147.95 223 148.05 222.8 148.15 222.7 149.55 221.3 150.5 220.15 152.5 219.7 154.6 219.2 161.85 217.35 166.4 214.4 168.25 213.3 170.35 211.45 170.7 211.15 171.35 210.55 173.4 211.7 175.6 212.95
L 182.25 216.9
Q 186.2 219.1 189.2 220.55 198.9 225.15 210.95 228.1 212.65 228.5 213.85 228.55 214.05 228.7 214.3 228.75 214.75 228.9 215.15 228.7 215.3 228.6 215.5 228.4 216.5 228 217.2 227.3 217.55 226.85 217.8 226.4
L 216.35 221
Q 212.65 207.65 211.4 203.6 208.75 195.35 208.1 191.85 207.6 189.25 207.1 184.15
L 206.3 176.3
Q 206.2 175.5 206.2 174.8
L 206.85 173.15
Q 207.8 171.35 208.25 170.4 209.2 168.55 210.65 164.2 212.45 158.6 213.05 154.6 213.15 153.95 213.25 153.3 217.1 151.8 223.05 149.55 230.85 146.5 235.65 144.3 244.15 140.45 252.3 135.2 254.5 133.9 254.7 132.45 254.75 132.25 254.75 132 254.75 129.9 251.1 128
L 217.95 111.7
Q 217.7 109.05 217.35 106.55 216.6 101.2 215 95 213.4 88.9 211.5 84.3 210.6 82.15 209.45 79.95 210.55 77.9 211.7 75.75 215.7 68.05 220.25 58.7
L 231.75 35.8
Q 233.35 32.7 233 31 232.8 29.7 231.85 28.75 231 27.9 229.7 27.5 227.8 26.85 224.8 27.4 Z"/>
</g>
</defs>

<g transform="matrix( 1, 0, 0, 1, 0,0) ">
<use xlink:href="#Layer0_0_FILL"/>
</g>
</svg>
