
<svg xmlns="http://www.w3.org/2000/svg" version="1.1" xmlns:xlink="http://www.w3.org/1999/xlink" preserveAspectRatio="none" x="0px" y="0px" width="256px" height="256px" viewBox="0 0 256 256">
<defs>
<g id="Layer0_0_FILL">
<path fill="#FFFFFF" stroke="none" d="
M 128.95 -0.1
Q 128 -0.8 126.8 -0.1 126.65 0 126.5 0.1 126.25 0.2 126.05 0.35 126 0.35 126 0.4 125.85 0.2 125.7 0.05 111.6 25.35 96.15 53.8 93.2 59.15 83.95 76.45
L 73.9 94.9
Q 62.15 116.85 56.6 127.65 47.2 146 40.95 161.3 38.65 166.85 34.2 178.1 30.15 188.2 27.05 194.65 24.8 199.2 20.25 208.15 16 216.95 11.5 228.5 9.1 234.7 3.85 249.4 3.2 251.25 3.85 252 3.9 252.1 4 252.2 3.9 252.5 3.95 252.95 4.2 254.1 5.05 254.4 5.85 254.65 6.85 254.35 7.4 254.15 8.5 253.5 28.55 240.9 50.05 226.2 57.2 221.3 60.65 218.7 65 215.5 73.25 208.6
L 122.95 167.5
Q 124.6 166.1 125.55 165 125.7 165.05 125.9 165.05 126.9 165.15 127.55 164.55 127.9 164.2 128.15 163.6 128.35 164.55 128.85 165 129.5 165.6 130.5 165.5 130.7 165.5 130.85 165.45 131.8 166.55 133.5 167.95
L 183.5 209.05
Q 191.85 215.95 196.2 219.15 199.7 221.75 206.85 226.65 228.55 241.35 248.65 253.95 249.8 254.6 250.35 254.8 251.35 255.1 252.15 254.85 253 254.55 253.2 253.4 253.25 252.95 253.15 252.65 253.25 252.55 253.3 252.45 253.9 251.7 253.35 249.85 247.9 235.15 245.45 228.95 240.85 217.4 236.5 208.6 231.9 199.65 229.65 195.1 226.5 188.65 222.35 178.55 217.8 167.3 215.45 161.75 209 146.45 199.5 128.1 193.9 117.3 181.9 95.35
L 171.7 76.9
Q 162.3 59.6 159.3 54.25 143.9 26.35 129.9 1.55 129.6 0.3 128.95 -0.1 Z"/>
</g>
</defs>

<g transform="matrix( 1, 0, 0, 1, 0,0) ">
<use xlink:href="#Layer0_0_FILL"/>
</g>
</svg>
