
<svg xmlns="http://www.w3.org/2000/svg" version="1.1" xmlns:xlink="http://www.w3.org/1999/xlink" preserveAspectRatio="none" x="0px" y="0px" width="256px" height="256px" viewBox="0 0 256 256">
<defs>
<g id="Layer0_0_FILL">
<path fill="#000000" stroke="none" d="
M 73.2 103.95
Q 70.35 101.6 68.5 101.45 64.85 101.1 61.85 105.8 59.45 109.6 60.45 112.2 60.95 113.45 63.05 115.35 67.3 119.1 69.7 121 73.45 124.05 76.75 126.05 80.15 128.1 88.15 131.65 91.40234375 133.1146484375 93.95 134.4 93.9 134.860546875 93.9 135.4
L 93.95 138.4
Q 94.05 139.9 94.3 140.6 94.7 141.3 94.8 141.7 95 142.25 94.9 143.5
L 94.7 145.5
Q 94.5 148.2 94.6 149.5 94.7 150.85 94.9 152.1 95.1 153.5 95.35 154.15 95.7 155 96.55 156.15 97.45 157.55 98.35 157.65 99.15 157.8 100.35 157 101.25 156.45 101.55 155.8 101.65 155.55 101.8 154.4
L 101.8 152
Q 101.8 150.9 101.65 150.35 101.2 149.45 101.1 148.9 101 148.55 101.1 147.85 101.2 147.15 101.15 146.8 101.15 146.65 100.75 145.5 100.6 145.1 100.5 143.65
L 100.25 137.95
Q 103.2013671875 139.84765625 103.95 140.2 106.07109375 141.260546875 107.9 141.3 108.0181640625 141.5859375 108.15 141.8 108.8 142.65 109.6 142.55 110.4369140625 142.503515625 110.95 141.6
L 111 141.6
Q 111.65 141.75 112.3 141.5 112.9 141.25 113.25 140.75 113.5 140.35 113.75 138.95 113.85 137.4 113.85 133.45 113.9 129.95 114.1 127.95 114.3 125.75 114.2 125 113.95 123.25 112.65 122.6 111.85 122.3 111.1 122.5 110.15 122.95 109.7 123.15 108.5 123.55 108.4 123.6 108.2048828125 123.678125 107.75 124.1 107.348828125 124.2244140625 107 124.6 106.7271484375 124.89765625 106.6 125.45 106.319140625 125.935546875 106.25 126.35 106.2 126.95 106.25 127.55
L 106.45 136
Q 94.5697265625 123.4611328125 87.25 116.45 79.8 109.3 73.2 103.95
M 188.55 95.1
Q 187.25 93.55 184.7 93.9 180.65 94.4 177.1 99.1 176.9 99.35 174.4 103.05 172.8 105.4 171.5 106.7 170.55 107.65 167.8 109.85 165.95 111.4 163.8 113.75 163.25 114.35 160.1 117.95
L 154.35 124.75
Q 151.55 128.05 150.45 129.9 149.9595703125 130.7337890625 148.4 134.05 148.6947265625 131.8482421875 148.4 129 148.2 127.2 147.55 123.9 146.9 120.9 145.3 120.75 144.4 120.6 143.6 121.45 142.95 122.15 142.6 123.2 141.65 126.1 142.5 130.95 143.6 137.25 143.55 138.9 143.55 140.3 143.7 140.7 144.05 141.55 145.1 141.95 146.1 142.25 147.05 141.95 148.45 141.5 150.2 139.65
L 154.85 134.85
Q 154.9421875 136.729296875 155.1 137.4
L 155.65 140.3
Q 155.85 141.4 155.9 145.3 155.95 148.4 156.65 150.15 157.15 151.35 157.2 151.75 157.3 152.35 157.1 153.4 156.95 154.55 156.95 155.05 157 156.05 157.65 156.9 158.25 157.75 159.2 158.1 160.2 158.45 161.2 158.2 162.25 157.95 162.9 157.2 163.8 156.25 164.05 154.6 164.4 152.95 164.4 149.6
L 164.35 145.4
Q 164.35 141.5 164.2 137.6 163.85 131.35 163.9 129.75 163.95 127.15 163.95 126.7 163.916796875 126.136328125 163.8 125.65
L 167.5 121.85
Q 169.076953125 120.23515625 170.45 118.8 174.1615234375 115.9947265625 178.55 113.2 182.65 110.6 185.55 109.6 187.95 108.85 188.7 108.1 190.2 106.65 189.9 102.65
L 189.55 98.5
Q 189.35 96.05 188.55 95.1 Z"/>
</g>
</defs>

<g transform="matrix( 1, 0, 0, 1, 0,0) ">
<use xlink:href="#Layer0_0_FILL"/>
</g>
</svg>
