
<svg xmlns="http://www.w3.org/2000/svg" version="1.1" xmlns:xlink="http://www.w3.org/1999/xlink" preserveAspectRatio="none" x="0px" y="0px" width="256px" height="256px" viewBox="0 0 256 256">
<defs>
<g id="Layer0_0_FILL">
<path fill="#FFFFFF" stroke="none" d="
M 225.3 182.1
L 214.85 161.25
Q 191.95 115.7 180.05 92.7 160.4 54.75 143.5 25 138.9 16.8 135.9 12.1 131.55 5.25 127.35 0.15 127.2 0.1 127 0
L 126.95 0 126.95 0.05
Q 126.8 0.1 126.6 0.2 122.5 5.3 118.35 12.1 115.4 16.85 110.9 25 94.45 54.8 75.3 92.7 63.7 115.7 41.4 161.25
L 31.2 182.1
Q 25.7 193.35 23.3 198.65 19.05 207.9 16.25 215.5 15.55 217.4 13.5 223.4 11.75 228.3 10.6 231.2 10.2 232.3 9.65 233.6
L 1.2 250.9
Q 0.85 251.6 0.75 251.95 0.55 252.55 0.7 253.1 0.75 253.4 0.9 253.65 0.5 254.75 0 256 1.2 255.2 2.4 254.4 3.2 254.5 3.9 254.1 4.65 253.65 5.25 252.75 5.4 252.6 5.5 252.4 17.65 244.55 31.7 236.7 46.6 228.4 66.1 218.7 75.6 214 101.05 201.75 114.8 195.15 124.95 190.15
L 124.95 190.15 125 190.15 125.2 190.05 125.5 190 126.1 190 126.15 190 128.05 189.85 128.6 190.05
Q 128.855859375 190.05 129 189.95 129.0896484375 190.03359375 129.1 190.1 129.184375 190.153125 129.2 190.2
L 129.2 190.2
Q 139.5669921875 195.2046875 153.6 201.75 179.75 213.95 189.5 218.7 209.5 228.35 224.8 236.7 239.2 244.55 251.65 252.4 251.8 252.6 251.9 252.75 252.55 253.65 253.3 254.1 254.05 254.5 254.85 254.4 256.1 255.2 257.3 256 256.85 254.75 256.4 253.6 256.55 253.4 256.6 253.05 256.75 252.55 256.55 251.95 256.45 251.6 256.1 250.9
L 247.45 233.6
Q 246.85 232.25 246.45 231.2 245.25 228.25 243.5 223.35 241.35 217.4 240.65 215.5 237.8 207.9 233.45 198.6 230.95 193.3 225.3 182.1
M 184.85 122.95
Q 189.3 131.1 194.6 140.75 200.5 151.55 203.45 156.95
L 209.15 167.4
Q 209 167.55 208.9 167.7 209.85 169.3 210.55 170.4 213.75 175.85 216.05 180.3 217.45 183 219.15 186.65 219.55 187.5 222.15 193.05 222.65 194.3 223.65 196.45 236.1 220.5 248.1 245.1 224.75 231.35 194.25 216.4 181.1 209.95 159.1 199.65 138.4 189.95 128.6 185.35 128.5765625 185.3630859375 128.55 185.35
L 128.5 185.35 128.1 185.3
Q 126.7 185.4 126.05 185.35 125.7015625 185.35 125.45 185.4 125.4369140625 185.374609375 125.4 185.35 115.85 189.95 95.7 199.65 74.3 209.95 61.45 216.4 31.7 231.35 9 245.1 20.65 220.55 32.8 196.45 33.75 194.3 34.3 193.05 36.8 187.5 37.2 186.65 38.85 183 40.25 180.3 42.45 175.85 45.6 170.4 46.25 169.3 47.2 167.7 47.1 167.55 46.95 167.4
L 52.5 156.95
Q 55.4 151.55 61.1 140.8 66.3 131.1 70.6 122.95
L 70.9 122.45
Q 71.3 121.7 71.7 120.95
L 72.2 120
Q 79.85 105.55 84.75 96.25 97.75 71.55 107.9 51.5 109.7 47.9 110.7 45.8 112.25 42.65 113.35 40.05 114.65 37.1 116.45 32.3 118.85 26.1 119.5 24.55 122.7 16.55 127 8.55 131.4 16.55 134.7 24.5 135.35 26.1 137.8 32.3 139.65 37.1 141 40.05 142.15 42.65 143.7 45.8 144.75 47.9 146.6 51.5 157 71.55 170.35 96.25 175.35 105.55 183.25 119.95 183.5 120.45 183.75 120.95 184.15 121.65 184.55 122.45 184.7 122.7 184.85 122.95 Z"/>
</g>
</defs>

<g transform="matrix( 1, 0, 0, 1, 0,0) ">
<use xlink:href="#Layer0_0_FILL"/>
</g>
</svg>
